#!OML:ASF E:/inclinewalkrobotboard/Project1/Captureday1/Session1/subject1.ASF
:FULLY-SPECIFIED
:DEGREES
376
root 0 0 0 -1.445246987427147 0.481715715860477 2.3649280364751664
lowerback 10.242864462785889 -1.5454534526335522 -4.209367852669528
upperback 0.4068154351685138 -2.4391851053160227 1.58782161724774
thorax -5.143595825273762 -1.0921159033900412 4.3687537969292
lowerneck -17.377642764557017 -2.430567235213236 -1.9366315404836367
upperneck 20.168053421792635 -2.747670109486218 -0.47668178144312834
head 9.288447727991986 -1.463493649972316 -0.19833488195666066
rclavicle 2.483348329079003E-15 -1.235897825215294E-15
rhumerus -32.76600243289689 -25.09725798141509 -75.55405079147612
rradius 24.866189904411556
rwrist 3.754200759679022
rhand -18.841235663820008 22.33717610874322
rfingers 7.125020000000018
rthumb 7.460927563574542 -7.6038341628119
lclavicle 1.5554257595603265E-15 -7.50959994805632E-16
lhumerus -24.703815787026013 -4.817458542746586 81.60882195790614
lradius 31.483596055977884
lwrist 7.259809095597937
lhand -28.010363709474674 25.782831280801894
lfingers 7.125020000000004
lthumb -1.3895712651665022 55.770565902795894
rfemur -27.570906491522912 7.351817411376015 19.304478123832293
rtibia 16.922896555549432
rfoot -6.609234185114287 -11.817278349822507
rtoes -3.610983974842152
lfemur 15.563997652209853 -3.5381751318652293 -29.089301383227504
ltibia 21.6334254308854
lfoot -12.25619415876961 -5.478077067411737
ltoes -2.8846666109409327
377
root 0 0 0 -1.4849039925339595 0.5747922493557662 0.7560013673712311
lowerback 10.443856622123784 -1.672718198349847 -3.027888111225196
upperback 0.39101733230129687 -2.4380014078752517 2.0560041518330587
thorax -5.268140086533585 -1.1159516546970116 4.195482189306786
lowerneck -17.453983107467046 -2.3692229490996435 -1.770534133007247
upperneck 19.640376632292302 -2.667627875467889 -0.6143639864215673
head 9.129218191029395 -1.429477677313412 -0.2592446620725885
rclavicle 2.186910997779272E-15 -1.7239283185467708E-15
rhumerus -32.981950508375185 -25.553198149268752 -75.40743215389945
rradius 24.39656751688849
rwrist 4.1738935718467625
rhand -18.779839774854384 22.2663647782721
rfingers 7.125020000000017
rthumb 7.520386277857021 -7.675540435277437
lclavicle 1.1604438252669364E-15 -1.134908634360233E-15
lhumerus -25.649933541217507 -4.21824368668546 81.7145120492711
lradius 31.05958122479187
lwrist 7.111945045198608
lhand -27.901534478408717 25.841563062979677
lfingers 7.125020000000007
lthumb -1.2838870904178403 55.82601726540713
rfemur -23.550823994908498 5.366447239568692 20.879107088932876
rtibia 27.423149602213893
rfoot -5.83187165542222 -7.605578551883626
rtoes 2.014464021020417
lfemur 16.67109048817786 -3.745786804028141 -27.087605908641713
ltibia 27.819222486940152
lfoot -4.306778752031278 -9.979710331833678
ltoes -9.34117114637435
378
root 0 0 0 -1.754665400930564 0.6699318910950973 -2.072663122755805
lowerback 10.690258763497463 -1.8569733969570086 -0.8565815380537087
upperback 0.49598770358913824 -2.372578281954241 2.878118990894
thorax -5.303764284127915 -1.1275576284224824 3.8302123856276076
lowerneck -17.340926219249678 -2.3176195064944087 -1.5572288337242026
upperneck 19.493800126698538 -2.6080072411808555 -0.7674546235273689
head 9.050569832176258 -1.402591788244146 -0.33904784173007857
rclavicle 2.1986543541771407E-15 -2.505496782700845E-15
rhumerus -32.979719682053876 -25.696637230825896 -75.3457835423823
rradius 24.114667112957093
rwrist 4.46963660058434
rhand -18.69382678504691 22.29321856124301
rfingers 7.125020000000017
rthumb 7.60374373482649 -7.641036968287825
lclavicle 9.586671366295732E-16 -1.898968007709177E-15
lhumerus -27.979651504884114 -3.253976959862495 82.34763948093081
lradius 30.380468858958185
lwrist 6.969187020617708
lhand -27.683029875871803 25.245921634758147
lfingers 7.125020000000014
lthumb -1.074240535712728 55.221904155821385
rfemur -20.75988385745752 4.647887992002446 22.848845877180814
rtibia 33.45758036196789
rfoot -6.171412099243501 -5.151280878587247
rtoes 7.39156987573703
lfemur 11.003780313965393 -2.745324623558173 -20.694100700121005
ltibia 50.14419217435813
lfoot 11.734089725365727 -18.129613152377786
ltoes -13.157059375454972
379
root 0 0 0 -2.7866715631733565 0.2590647075705479 -3.2198837854581375
lowerback 10.871621475917213 -1.5844663583128846 0.22861770633777423
upperback 0.956586925749747 -1.863358015677867 3.105898550803815
thorax -5.003409249780668 -0.8932176862711743 3.400210037145632
lowerneck -16.33694574989917 -2.45962621966908 -1.5227197436831035
upperneck 21.944355077560893 -2.858261550189316 -0.6063111018399623
head 9.697127671752012 -1.4969989324826407 -0.3343941473781546
rclavicle 3.1283067542800224E-15 -4.1426575609859576E-15
rhumerus -32.80428037252324 -25.46249989667168 -75.64645270238509
rradius 23.818799579164214
rwrist 4.740554654944272
rhand -18.532689791893247 22.37626121102982
rfingers 7.125020000000017
rthumb 7.760880456283107 -7.533851297989695
lclavicle 1.5042245664986651E-15 -3.963889855956605E-15
lhumerus -30.741352013953865 -2.4564747745416327 83.38431967529422
lradius 29.702260392944204
lwrist 6.808189253823846
lhand -27.424345125841846 24.41425278994566
lfingers 7.1250200000000214
lthumb -0.8257936662020615 54.382224900914956
rfemur -18.866586503426053 5.8869931498425405 25.478608201804697
rtibia 31.068094208973616
rfoot -8.501143291427214 -5.605954582472043
rtoes 10.53722690115618
lfemur 0.03850776382245602 -1.026863709331406 -17.156522136471125
ltibia 57.25872320014097
lfoot 19.544280750625283 -21.26468094928134
ltoes -5.44689934235555
